PathFileType	4	(X/Y/Z)	RBDS024static.trc
DataRate	CameraRate	NumFrames	NumMarkers	Units	OrigDataRate	OrigDataStartFrame	OrigNumFrames
150.000000	150.000000	4	48	mm	150.000000	56	150
Frame#	Time	L.Ankle			L.Ankle.Medial			L.ASIS			L.GTR			L.Heel.Bottom			L.Heel.Lateral			L.Heel.Top			L.HF			L.Iliac.Crest			L.Knee			L.Knee.Medial			L.MT1			L.MT2			L.MT5			L.PSIS			L.Shank.Bottom.Lateral			L.Shank.Bottom.Medial			L.Shank.Top.Lateral			L.Shank.Top.Medial			L.Thigh.Bottom.Lateral			L.Thigh.Bottom.Medial			L.Thigh.Top.Lateral			L.Thigh.Top.Medial			L.TT			R.Ankle			R.Ankle.Medial			R.ASIS			R.GTR			R.Heel.Bottom			R.Heel.Lateral			R.Heel.Top			R.HF			R.Iliac.Crest			R.Knee			R.Knee.Medial			R.MT1			R.MT2			R.MT5			R.PSIS			R.Shank.Bottom.Lateral			R.Shank.Bottom.Medial			R.Shank.Top.Lateral			R.Shank.Top.Medial			R.Thigh.Bottom.Lateral			R.Thigh.Bottom.Medial			R.Thigh.Top.Lateral			R.Thigh.Top.Medial			R.TT			
		X1	Y1	Z1	X2	Y2	Z2	X3	Y3	Z3	X4	Y4	Z4	X5	Y5	Z5	X6	Y6	Z6	X7	Y7	Z7	X8	Y8	Z8	X9	Y9	Z9	X10	Y10	Z10	X11	Y11	Z11	X12	Y12	Z12	X13	Y13	Z13	X14	Y14	Z14	X15	Y15	Z15	X16	Y16	Z16	X17	Y17	Z17	X18	Y18	Z18	X19	Y19	Z19	X20	Y20	Z20	X21	Y21	Z21	X22	Y22	Z22	X23	Y23	Z23	X24	Y24	Z24	X25	Y25	Z25	X26	Y26	Z26	X27	Y27	Z27	X28	Y28	Z28	X29	Y29	Z29	X30	Y30	Z30	X31	Y31	Z31	X32	Y32	Z32	X33	Y33	Z33	X34	Y34	Z34	X35	Y35	Z35	X36	Y36	Z36	X37	Y37	Z37	X38	Y38	Z38	X39	Y39	Z39	X40	Y40	Z40	X41	Y41	Z41	X42	Y42	Z42	X43	Y43	Z43	X44	Y44	Z44	X45	Y45	Z45	X46	Y46	Z46	X47	Y47	Z47	X48	Y48	Z48	

57	0.3733333333333334	718.4185180664063	108.3417816162109	1047.069702148438	736.3650512695313	115.3428802490234	1133.754516601563	907.1109008789063	1014.520263671875	1097.173950195313	813.2913818359375	922.4326782226563	1031.462524414063	645.6768188476563	41.13534927368164	1090.181518554688	667.95361328125	61.47947311401367	1047.85400390625	654.7077026367188	85.36965942382813	1091.58544921875	773.7045288085938	468.3187866210938	1036.431884765625	812.96044921875	1083.406616210938	1044.2763671875	786.0408935546875	530.029296875	1040.889038085938	767.977783203125	517.9833984375	1166.418334960938	869.5855712890625	54.65669250488281	1128.1533203125	876.0066528320313	66.17055511474609	1089.15966796875	834.5712890625	49.09846115112305	1013.266967773438	721.9371948242188	1055.449584960938	1160.056762695313	728.326904296875	183.1052398681641	1039.2431640625	683.3526611328125	188.0072631835938	1063.727172851563	730.9736938476563	262.0469055175781	1020.995666503906	685.2935180664063	271.2586059570313	1047.394653320313	781.2510986328125	654.386962890625	1022.623596191406	720.4132080078125	656.1893310546875	1060.69189453125	779.1296997070313	764.8202514648438	1020.612060546875	724.4462280273438	766.7814331054688	1061.97607421875	823.6528930664063	450.4289855957031	1090.651123046875	705.6234130859375	109.4927520751953	1410.818359375	726.8143920898438	115.2734680175781	1322.46630859375	895.900634765625	1011.496032714844	1336.696166992188	806.355712890625	923.962890625	1396.05615234375	635.5587158203125	43.69601440429688	1366.389038085938	666.76171875	63.14622497558594	1411.345947265625	644.0326538085938	87.43195343017578	1365.9609375	776.2775268554688	475.5181274414063	1408.826416015625	822.3963012695313	1081.563842773438	1384.752807617188	794.8074340820313	537.135009765625	1400.470092773438	777.0460815429688	515.04638671875	1275.486328125	852.8255615234375	56.80031585693359	1323.874877929688	860.9669189453125	73.51860809326172	1369.091796875	827.9556884765625	51.72022247314453	1440.741943359375	722.60205078125	1052.085693359375	1263.41748046875	705.4303588867188	191.7296905517578	1417.5859375	667.805419921875	199.5266876220703	1376.845336914063	707.3628540039063	272.4425659179688	1428.998168945313	671.8087768554688	279.6719970703125	1389.186889648438	772.1197509765625	656.1845092773438	1412.93994140625	715.4982299804688	657.3939819335938	1365.963623046875	771.200439453125	765.9891357421875	1412.103515625	718.32470703125	766.7938842773438	1367.358764648438	827.2605590820313	449.6689453125	1358.993774414063	
58	0.38	718.4097290039063	108.3315048217773	1047.069580078125	736.3772583007813	115.3381652832031	1133.757446289063	907.0704956054688	1014.523559570313	1097.180419921875	813.2713012695313	922.4419555664063	1031.461181640625	645.677001953125	41.13345718383789	1090.166015625	667.961181640625	61.46368026733398	1047.863403320313	654.7247314453125	85.37659454345703	1091.584106445313	773.6813354492188	468.3229064941406	1036.437622070313	812.9173583984375	1083.405883789063	1044.27587890625	786.02197265625	530.0234985351563	1040.900146484375	767.9658203125	517.97607421875	1166.412475585938	869.5818481445313	54.64298629760742	1128.1572265625	876.0052490234375	66.17214202880859	1089.1630859375	834.5762939453125	49.09358215332031	1013.266296386719	721.90771484375	1055.451782226563	1160.05322265625	728.3197021484375	183.1014709472656	1039.25	683.3428344726563	188.000732421875	1063.729370117188	730.9627075195313	262.0425415039063	1020.999755859375	685.286376953125	271.2517700195313	1047.40380859375	781.2277221679688	654.3743286132813	1022.63720703125	720.3985595703125	656.1861572265625	1060.702270507813	779.1011352539063	764.81494140625	1020.623046875	724.4187622070313	766.7742309570313	1061.980102539063	823.6279296875	450.4265747070313	1090.6572265625	705.6126708984375	109.5016860961914	1410.831298828125	726.816650390625	115.2866973876953	1322.46923828125	895.8684692382813	1011.50341796875	1336.7080078125	806.3314819335938	923.965087890625	1396.064208984375	635.5545043945313	43.70021820068359	1366.386962890625	666.7584838867188	63.14265441894531	1411.35546875	644.024658203125	87.42617034912109	1365.967651367188	776.2713623046875	475.5144348144531	1408.834716796875	822.3734130859375	1081.568237304688	1384.7431640625	794.7999267578125	537.1314697265625	1400.46533203125	777.0347290039063	515.034423828125	1275.484497070313	852.818359375	56.79529571533203	1323.880249023438	860.9613037109375	73.52219390869141	1369.09228515625	827.94189453125	51.71660995483398	1440.752197265625	722.5662841796875	1052.083862304688	1263.423461914063	705.841064453125	191.7673950195313	1417.447631835938	667.7518310546875	200.1302795410156	1377.262573242188	707.3489379882813	272.439697265625	1428.990844726563	671.8123168945313	279.6672973632813	1389.182373046875	772.101806640625	656.1799926757813	1412.938720703125	715.482421875	657.380859375	1365.96337890625	771.176025390625	765.9895629882813	1412.107788085938	718.3060302734375	766.7880859375	1367.35888671875	827.256103515625	449.6796875	1359.004638671875	
59	0.3866666666666667	718.4036254882813	108.3235549926758	1047.075927734375	736.3646850585938	115.3354644775391	1133.751953125	907.04931640625	1014.523559570313	1097.18701171875	813.2328491210938	922.4425659179688	1031.466918945313	645.6790771484375	41.13540649414063	1090.16796875	667.9596557617188	61.47040176391602	1047.859741210938	654.7149658203125	85.36735534667969	1091.589599609375	773.6682739257813	468.3309936523438	1036.436645507813	812.8815307617188	1083.406616210938	1044.282836914063	786.0037841796875	530.0267333984375	1040.892333984375	767.9512329101563	517.976318359375	1166.419189453125	869.5796508789063	54.6514778137207	1128.155517578125	876.0062255859375	66.17060089111328	1089.162719726563	834.570068359375	49.09372329711914	1013.271423339844	721.8692016601563	1055.447631835938	1160.064208984375	728.3155517578125	183.1003112792969	1039.249389648438	683.337646484375	187.9952087402344	1063.733154296875	730.9548950195313	262.0438842773438	1021.007385253906	685.2750854492188	271.2511596679688	1047.404296875	781.2111206054688	654.3741455078125	1022.641967773438	720.3685302734375	656.1861572265625	1060.7119140625	779.0728759765625	764.8157958984375	1020.634460449219	724.3917846679688	766.773681640625	1061.9873046875	823.6023559570313	450.4156494140625	1090.660400390625	705.6101684570313	109.4974212646484	1410.822509765625	726.8099365234375	115.2783126831055	1322.460693359375	895.8424682617188	1011.500793457031	1336.706665039063	806.3001708984375	923.9722900390625	1396.066772460938	635.5560913085938	43.70228958129883	1366.390380859375	666.7603759765625	63.14023971557617	1411.350708007813	644.0250854492188	87.43080139160156	1365.967163085938	776.2601928710938	475.5064086914063	1408.834350585938	822.3500366210938	1081.575317382813	1384.750732421875	794.7850341796875	537.1326293945313	1400.474487304688	777.0443115234375	515.0391235351563	1275.493286132813	852.8201293945313	56.80350112915039	1323.869995117188	860.9661865234375	73.52125549316406	1369.08056640625	827.9470825195313	51.72122192382813	1440.739379882813	722.542236328125	1052.07763671875	1263.421142578125	705.42724609375	191.7264404296875	1417.591796875	667.7916870117188	199.5201263427734	1376.843627929688	707.3419189453125	272.4485473632813	1428.996459960938	671.8043823242188	279.6685180664063	1389.181640625	772.0878295898438	656.1730346679688	1412.942749023438	715.4707641601563	657.3829956054688	1365.9599609375	771.1602172851563	765.9832763671875	1412.110595703125	718.2807006835938	766.7959594726563	1367.364990234375	827.2382202148438	449.6734008789063	1359.004028320313	
60	0.3933333333333334	718.4044799804688	108.3243179321289	1047.07763671875	736.364501953125	115.3370513916016	1133.760864257813	907.0219116210938	1014.526428222656	1097.18017578125	813.2090454101563	922.4469604492188	1031.476318359375	645.6766357421875	41.13300323486328	1090.1689453125	667.9575805664063	61.46635818481445	1047.86376953125	654.7234497070313	85.37230682373047	1091.5966796875	773.6468505859375	468.33056640625	1036.4375	812.8330078125	1083.403442382813	1044.274780273438	785.97265625	530.0244140625	1040.90673828125	767.9398803710938	517.9694213867188	1166.424072265625	869.5783081054688	54.65310287475586	1128.155151367188	876.0104370117188	66.17504119873047	1089.158325195313	834.5825805664063	49.08730697631836	1013.269958496094	721.8487548828125	1055.44140625	1160.070190429688	728.3074340820313	183.1015930175781	1039.253173828125	683.3234252929688	188.0018157958984	1063.737670898438	730.9429321289063	262.0445556640625	1021.006774902344	685.265625	271.2467346191406	1047.404296875	781.1788330078125	654.3800048828125	1022.649719238281	720.3465576171875	656.1830444335938	1060.715087890625	779.0501708984375	764.816650390625	1020.639587402344	724.3544921875	766.7739868164063	1062.00146484375	823.599853515625	450.4180908203125	1090.668090820313	705.61279296875	109.484016418457	1410.822021484375	726.8023681640625	115.2958145141602	1322.464111328125	895.8179321289063	1011.496276855469	1336.708862304688	806.287353515625	923.9752197265625	1396.06689453125	635.55615234375	43.6995735168457	1366.392700195313	666.760498046875	63.1374397277832	1411.350463867188	644.0309448242188	87.42542266845703	1365.968505859375	776.2434692382813	475.5080871582031	1408.82666015625	822.3218383789063	1081.58251953125	1384.752807617188	794.767333984375	537.1364135742188	1400.470092773438	777.017333984375	515.0471801757813	1275.493286132813	852.8079223632813	56.8106803894043	1323.865478515625	860.953125	73.53003692626953	1369.083862304688	827.9407958984375	51.72927474975586	1440.73828125	722.5050048828125	1052.083862304688	1263.441284179688	705.8271484375	191.7658386230469	1417.439453125	667.7494506835938	200.1289825439453	1377.27294921875	707.343994140625	272.4332275390625	1428.999389648438	671.797607421875	279.6659851074219	1389.177001953125	772.0747680664063	656.1788940429688	1412.942260742188	715.4442749023438	657.3846435546875	1365.955444335938	771.139892578125	765.9863891601563	1412.111938476563	718.26171875	766.7886352539063	1367.365478515625	827.22314453125	449.6779174804688	1359.006103515625	
